<?xml version="1.0" encoding="UTF-8"?>
<svg xmlns="http://www.w3.org/2000/svg" width="144" height="36" viewBox="0 0 144 36" fill="none">
  <path fill-rule="evenodd" clip-rule="evenodd" d="M47.3382 18.708L47.8276 16.1544C47.8276 16.1544 44.0588 15.0327 40.9915 17.113V27.3281L44.2488 27.3281V19.0288C45.5468 18.0702 47.3382 18.708 47.3382 18.708Z" fill="white"></path>
  <mask id="mask0" maskUnits="userSpaceOnUse" x="40" y="15" width="8" height="13">
    <path d="M40.9915 17.113C42.4673 16.1123 44.1056 15.8525 45.4083 15.8527C46.8131 15.8527 47.8278 16.1546 47.8278 16.1546L47.3382 18.7082C47.3382 18.7082 45.5468 18.0704 44.2488 19.0288V27.3281L40.9915 27.3281V17.113Z" fill="white"></path>
  </mask>
  <g mask="url(#mask0)">
    <path fill-rule="evenodd" clip-rule="evenodd" d="M-157.29 58.9883L301.421 58.9883V-536.541L-157.29 -536.541V58.9883Z" fill="white"></path>
  </g>
  <mask id="mask1" maskUnits="userSpaceOnUse" x="40" y="15" width="8" height="13">
    <path d="M40.9915 17.113C42.4673 16.1123 44.1054 15.8527 45.4083 15.8527C46.8131 15.8527 47.8278 16.1546 47.8278 16.1546L47.3382 18.7082C47.3382 18.7082 45.5468 18.0704 44.2488 19.0288V27.3281L40.9915 27.3281V17.113Z" fill="white"></path>
  </mask>
  <g mask="url(#mask1)">
    <path fill-rule="evenodd" clip-rule="evenodd" d="M35.5308 32.332L53.2887 32.332V10.8476L35.5308 10.8476V32.332Z" fill="white"></path>
  </g>
  <path fill-rule="evenodd" clip-rule="evenodd" d="M19.2561 13.2396L22.5119 12.6775V15.9997L25.7336 15.9997V18.6566L22.5119 18.6566V22.6187C22.5119 23.2937 22.631 23.8295 22.8745 24.2257C23.1153 24.628 23.5981 24.8274 24.3231 24.8274C24.6777 24.8274 25.0337 24.7963 25.4093 24.7302C25.7743 24.6629 26.1146 24.5766 26.4208 24.4635L26.8815 26.9522C26.4874 27.1071 26.0518 27.2416 25.5716 27.3556C25.0898 27.4685 24.4984 27.5273 23.7995 27.5273C22.9111 27.5273 22.1769 27.4086 21.5931 27.1732C21.0122 26.9377 20.5452 26.6074 20.197 26.1858C19.8489 25.7679 19.604 25.2551 19.4667 24.6545C19.3267 24.0552 19.2561 23.3933 19.2561 22.6631V13.2396Z" fill="white"></path>
  <mask id="mask2" maskUnits="userSpaceOnUse" x="19" y="12" width="8" height="16">
    <path d="M19.2566 13.2396L22.5124 12.6775V15.9997L25.7341 15.9997V18.6566L22.5124 18.6566V22.6187C22.5124 23.2939 22.6315 23.8295 22.8748 24.2257C23.1155 24.6282 23.5984 24.8274 24.3234 24.8274C24.6779 24.8274 25.0338 24.7963 25.4096 24.7302C25.7746 24.6629 26.1151 24.5766 26.4213 24.4637L26.8818 26.9522C26.4879 27.1073 26.0521 27.2418 25.5719 27.3558C25.0901 27.4687 24.4986 27.5273 23.7998 27.5273C22.9112 27.5273 22.1772 27.4086 21.5936 27.1732C21.0125 26.9377 20.5453 26.6074 20.1973 26.186C19.8491 25.7679 19.6045 25.2551 19.4671 24.6545C19.327 24.0552 19.2566 23.3935 19.2566 22.6632V13.2396Z" fill="white"></path>
  </mask>
  <g mask="url(#mask2)">
    <path fill-rule="evenodd" clip-rule="evenodd" d="M-157.291 58.9844L301.42 58.9844V-536.545L-157.291 -536.545V58.9844Z" fill="white"></path>
    <path fill-rule="evenodd" clip-rule="evenodd" d="M13.7952 32.5312L32.3421 32.5313V7.67227L13.7952 7.67227V32.5312Z" fill="white"></path>
  </g>
  <path fill-rule="evenodd" clip-rule="evenodd" d="M52.6499 25.0395C53.2454 25.0395 53.6668 24.9793 53.9169 24.8664C54.1653 24.7524 54.2857 24.529 54.2857 24.2024C54.2857 23.9441 54.1287 23.7196 53.8067 23.5286C53.4849 23.3341 53.0006 23.1179 52.3439 22.8715C51.8347 22.6854 51.3715 22.4934 50.954 22.2952C50.5418 22.0934 50.1885 21.858 49.8967 21.5781C49.6059 21.2996 49.3809 20.9655 49.2186 20.5764C49.0564 20.1944 48.9794 19.7321 48.9794 19.1867C48.9794 18.1309 49.3809 17.2938 50.1806 16.68C50.9814 16.0687 52.0782 15.7565 53.4783 15.7565C54.1785 15.7565 54.8485 15.8177 55.4897 15.9415C56.1297 16.0615 56.6414 16.1985 57.0168 16.3365L56.4502 18.8226C56.0708 18.6942 55.6586 18.5813 55.2149 18.4829C54.7712 18.3821 54.2714 18.3291 53.7191 18.3291C52.6997 18.3291 52.1892 18.6102 52.1892 19.1663C52.1892 19.2947 52.2116 19.4089 52.256 19.5085C52.3005 19.6095 52.387 19.7056 52.5153 19.798C52.6499 19.8894 52.8254 19.9925 53.053 20.0983C53.2793 20.21 53.5672 20.3252 53.9169 20.4562C54.6273 20.7156 55.2175 20.9678 55.6835 21.2226C56.1505 21.4771 56.517 21.7451 56.7879 22.0428C57.0574 22.3336 57.2486 22.6556 57.3558 23.0132C57.4632 23.3701 57.5194 23.782 57.5194 24.2517C57.5194 25.365 57.0927 26.2068 56.2435 26.7762C55.3902 27.3432 54.1836 27.6289 52.625 27.6289C51.6069 27.6289 50.7589 27.5461 50.0824 27.372C49.4032 27.2027 48.9347 27.0563 48.6731 26.9432L49.2186 24.3513C49.7697 24.5651 50.3429 24.7308 50.9214 24.8559C51.5076 24.9783 52.0782 25.0395 52.6499 25.0395Z" fill="white"></path>
  <mask id="mask3" maskUnits="userSpaceOnUse" x="48" y="15" width="10" height="13">
    <path d="M50.1806 16.6802C50.9816 16.0687 52.0782 15.7565 53.4783 15.7565C54.1787 15.7565 54.8487 15.8177 55.4899 15.9415C56.1297 16.0615 56.6414 16.1984 57.017 16.3365L56.4504 18.8226C56.0708 18.6942 55.6588 18.5813 55.2149 18.4829C54.7715 18.3819 54.2714 18.3293 53.7193 18.3293C52.6997 18.3293 52.1895 18.61 52.1895 19.1663C52.1895 19.2947 52.2116 19.4089 52.256 19.5085C52.3007 19.6095 52.3872 19.7056 52.5155 19.798C52.6499 19.8894 52.8256 19.9925 53.0532 20.0983C53.2795 20.2098 53.5672 20.3254 53.9169 20.4562C54.6275 20.7156 55.2177 20.9678 55.6835 21.2226C56.1507 21.4771 56.5172 21.7449 56.7881 22.0428C57.0576 22.3336 57.2486 22.6554 57.356 23.0132C57.4634 23.3701 57.5194 23.782 57.5194 24.2517C57.5194 25.365 57.0927 26.207 56.2437 26.7762C55.3904 27.3432 54.1838 27.6289 52.6252 27.6289C51.6071 27.6289 50.7591 27.5461 50.0826 27.372C49.4032 27.2027 48.9349 27.0563 48.6731 26.9432L49.2188 24.3513C49.7699 24.5653 50.3429 24.7308 50.9214 24.8559C51.5076 24.9781 52.0782 25.0395 52.6499 25.0395C53.2454 25.0395 53.667 24.9795 53.9169 24.8664C54.1655 24.7524 54.2859 24.529 54.2859 24.2024C54.2859 23.9441 54.1289 23.7196 53.8069 23.5286C53.4849 23.3341 53.0006 23.1179 52.3439 22.8715C51.8347 22.6854 51.3717 22.4934 50.954 22.2952C50.542 22.0934 50.1885 21.858 49.8969 21.5781C49.6062 21.2994 49.3811 20.9655 49.2188 20.5764C49.0566 20.1942 48.9794 19.7321 48.9794 19.1867C48.9794 18.1311 49.3811 17.2939 50.1806 16.6802Z" fill="white"></path>
  </mask>
  <g mask="url(#mask3)">
    <path fill-rule="evenodd" clip-rule="evenodd" d="M-157.29 58.9883L301.421 58.9883V-536.541L-157.29 -536.541V58.9883Z" fill="white"></path>
    <path fill-rule="evenodd" clip-rule="evenodd" d="M43.2129 32.6328L62.981 32.6328V10.7513L43.2129 10.7513V32.6328Z" fill="white"></path>
  </g>
  <path fill-rule="evenodd" clip-rule="evenodd" d="M67.5541 20.8555C67.2622 21.9414 66.9547 23.0223 66.6263 24.0912C66.299 25.1638 65.9508 26.2425 65.5912 27.3281L63.0564 27.3281C62.7933 26.7276 62.5068 26.0142 62.2005 25.1866C61.8915 24.3555 61.5763 23.4535 61.2451 22.4723C60.9178 21.4944 60.5831 20.4593 60.24 19.3639C59.8959 18.2733 59.5622 17.1707 59.2429 16.0549L62.6742 16.0549C62.788 16.5677 62.9175 17.1312 63.0574 17.7375C63.1963 18.3453 63.3429 18.9711 63.496 19.6149C63.6491 20.2564 63.8127 20.9011 63.9801 21.5521C64.149 22.2031 64.3219 22.8265 64.4969 23.426C64.6868 22.7978 64.8727 22.1564 65.0546 21.4993C65.2339 20.8413 65.4106 20.195 65.5793 19.5597C65.7456 18.9255 65.9092 18.3094 66.0582 17.7161C66.2101 17.1237 66.3449 16.5677 66.464 16.0549L68.8208 16.0549C68.9412 16.5677 69.068 17.1237 69.2158 17.7161C69.3598 18.3094 69.5131 18.9255 69.6754 19.5597C69.8323 20.195 70.0038 20.8413 70.1752 21.4993C70.3517 22.1564 70.5325 22.7978 70.7197 23.426C70.8962 22.8265 71.0717 22.2031 71.2482 21.5521C71.4249 20.9011 71.5911 20.2564 71.7429 19.6149C71.8948 18.9711 72.0413 18.3453 72.1828 17.7375C72.3227 17.1312 72.4497 16.5677 72.566 16.0549L75.9528 16.0549C75.631 17.1707 75.2999 18.2733 74.9557 19.3639C74.6089 20.4593 74.2777 21.4944 73.9468 22.4723C73.6207 23.4535 73.2989 24.3555 72.9861 25.1866C72.6709 26.0142 72.3801 26.7276 72.1213 27.3281L69.5865 27.3281C69.2198 26.2425 68.864 25.1638 68.5133 24.0912C68.1638 23.0223 67.8471 21.9414 67.5541 20.8555Z" fill="white"></path>
  <mask id="mask4" maskUnits="userSpaceOnUse" x="59" y="16" width="17" height="12">
    <path d="M72.566 16.0549L75.9528 16.0549C75.631 17.1707 75.2999 18.2733 74.9555 19.3637C74.6089 20.4593 74.2777 21.4946 73.9465 22.4723C73.6207 23.4535 73.2989 24.3555 72.9858 25.1866C72.6706 26.0142 72.3801 26.7274 72.1211 27.3281L69.5863 27.3281C69.2198 26.2425 68.864 25.1636 68.5133 24.091C68.1638 23.0223 67.8471 21.9414 67.5541 20.8555C67.262 21.9414 66.9545 23.0223 66.6263 24.091C66.299 25.1636 65.9508 26.2425 65.591 27.3281L63.0562 27.3281C62.7931 26.7274 62.5066 26.0142 62.2003 25.1866C61.8915 24.3555 61.5761 23.4535 61.2451 22.4723C60.9178 21.4946 60.5828 20.4593 60.24 19.3637C59.8959 18.2733 59.5622 17.1707 59.2429 16.0549L62.674 16.0549C62.788 16.5677 62.9175 17.131 63.0575 17.7375C63.1963 18.3453 63.3427 18.9711 63.496 19.6147C63.6489 20.2562 63.8127 20.9011 63.9801 21.5521C64.149 22.2031 64.3219 22.8265 64.4969 23.426C64.6866 22.7978 64.8725 22.1562 65.0544 21.4993C65.2336 20.8413 65.4106 20.195 65.5793 19.5597C65.7454 18.9253 65.9089 18.3092 66.0582 17.7161C66.2101 17.1237 66.3449 16.5677 66.4638 16.0549L68.8208 16.0549C68.941 16.5677 69.068 17.1237 69.2158 17.7161C69.3598 18.3092 69.5131 18.9253 69.6752 19.5597C69.8324 20.195 70.0036 20.8413 70.1752 21.4993C70.3517 22.1562 70.5325 22.7978 70.7195 23.426C70.8962 22.8265 71.0715 22.2031 71.2482 21.5521C71.4249 20.9011 71.5911 20.2562 71.7429 19.6147C71.8948 18.9711 72.0413 18.3453 72.1825 17.7375C72.3227 17.131 72.4497 16.5677 72.566 16.0549Z" fill="white"></path>
  </mask>
  <g mask="url(#mask4)">
    <path fill-rule="evenodd" clip-rule="evenodd" d="M-157.291 58.9844L301.42 58.9844V-536.545L-157.291 -536.545V58.9844Z" fill="white"></path>
    <path fill-rule="evenodd" clip-rule="evenodd" d="M53.7822 32.332L81.4138 32.332V11.0498L53.7822 11.0498V32.332Z" fill="white"></path>
  </g>
  <path fill-rule="evenodd" clip-rule="evenodd" d="M78.2544 27.3242L81.5051 27.3242V16.0533L78.2544 16.0533V27.3242Z" fill="white"></path>
  <mask id="mask5" maskUnits="userSpaceOnUse" x="78" y="16" width="4" height="12">
    <path d="M78.2544 27.3242V16.0533L81.5053 16.0533V27.3242L78.2544 27.3242Z" fill="white"></path>
  </mask>
  <g mask="url(#mask5)">
    <path fill-rule="evenodd" clip-rule="evenodd" d="M-157.291 58.9844L301.42 58.9844V-536.545L-157.291 -536.545V58.9844Z" fill="white"></path>
    <path fill-rule="evenodd" clip-rule="evenodd" d="M72.7937 32.3281L86.966 32.3281V11.0482L72.7937 11.0482V32.3281Z" fill="white"></path>
  </g>
  <path fill-rule="evenodd" clip-rule="evenodd" d="M84.0913 13.2428L87.3446 12.6772V16.0593L90.564 16.0593V18.7113L87.3446 18.7113V22.6773C87.3446 23.3486 87.4649 23.8893 87.7044 24.2843C87.9439 24.6843 88.4293 24.8849 89.1558 24.8849C89.5078 24.8849 89.8689 24.856 90.2379 24.7899C90.6108 24.725 90.9485 24.6327 91.2561 24.521L91.7129 27.0073C91.3188 27.1655 90.8805 27.3002 90.403 27.4154C89.9198 27.5283 89.3351 27.5859 88.6334 27.5859C87.7438 27.5859 87.0096 27.4684 86.4272 27.2304C85.8436 26.9987 85.3776 26.6708 85.0297 26.2455C84.6815 25.8276 84.4382 25.3123 84.2983 24.7155C84.1568 24.1138 84.0913 23.4484 84.0913 22.7215V13.2428Z" fill="white"></path>
  <mask id="mask6" maskUnits="userSpaceOnUse" x="84" y="12" width="8" height="16">
    <path d="M84.0913 13.2428L87.3443 12.6772V16.0593L90.5638 16.0593V18.7113L87.3443 18.7113V22.6773C87.3443 23.3486 87.4649 23.8891 87.7044 24.2843C87.9439 24.6843 88.4293 24.8847 89.1556 24.8847C89.5076 24.8847 89.8689 24.856 90.2379 24.7899C90.6108 24.7248 90.9485 24.6327 91.2558 24.521L91.7127 27.0071C91.3188 27.1655 90.8802 27.3002 90.403 27.4154C89.9197 27.5283 89.3351 27.5859 88.6334 27.5859C87.7438 27.5859 87.0094 27.4684 86.4272 27.2304C85.8434 26.9985 85.3776 26.6708 85.0297 26.2457C84.6815 25.8276 84.4382 25.3125 84.298 24.7155C84.1568 24.1138 84.0913 23.4482 84.0913 22.7217V13.2428Z" fill="white"></path>
  </mask>
  <g mask="url(#mask6)">
    <path fill-rule="evenodd" clip-rule="evenodd" d="M-157.291 58.9844L301.42 58.9844V-536.545L-157.291 -536.545V58.9844Z" fill="white"></path>
    <path fill-rule="evenodd" clip-rule="evenodd" d="M78.6301 32.5898L97.1735 32.5898V7.67198L78.6301 7.67198V32.5898Z" fill="white"></path>
  </g>
  <path fill-rule="evenodd" clip-rule="evenodd" d="M92.8621 21.6945C92.8621 20.8788 92.9971 20.1102 93.2666 19.3896C93.5361 18.6665 93.9249 18.0397 94.434 17.5027C94.9443 16.9659 95.5619 16.543 96.292 16.2272C97.0184 15.9161 97.8481 15.7551 98.7798 15.7551C99.3909 15.7551 99.9524 15.8117 100.463 15.9173C100.973 16.0266 101.471 16.1793 101.948 16.3773L101.273 18.9273C100.965 18.8143 100.631 18.7158 100.265 18.627C99.9013 18.5428 99.4917 18.4985 99.0417 18.4985C98.0812 18.4985 97.3625 18.7926 96.8927 19.3787C96.415 19.9662 96.1821 20.7361 96.1821 21.6945C96.1821 22.7068 96.4033 23.4935 96.851 24.0509C97.2906 24.607 98.068 24.8869 99.1737 24.8869C99.5676 24.8869 99.9877 24.8495 100.442 24.7787C100.892 24.7066 101.307 24.5938 101.689 24.4353L102.145 27.0512C101.765 27.2085 101.294 27.3406 100.726 27.457C100.155 27.5702 99.5308 27.6289 98.8479 27.6289C97.7996 27.6289 96.8942 27.4728 96.1389 27.1664C95.3828 26.8602 94.7584 26.4421 94.2715 25.9137C93.7809 25.3841 93.4276 24.7596 93.2013 24.0389C92.9748 23.3171 92.8621 22.5341 92.8621 21.6945Z" fill="white"></path>
  <mask id="mask7" maskUnits="userSpaceOnUse" x="92" y="15" width="11" height="13">
    <path d="M96.2923 16.2272C97.0186 15.9161 97.8483 15.7551 98.7801 15.7551C99.3911 15.7551 99.9526 15.8115 100.463 15.9171C100.973 16.0266 101.471 16.1791 101.948 16.3773L101.273 18.9271C100.965 18.8143 100.632 18.7158 100.265 18.627C99.9014 18.5426 99.492 18.4983 99.0417 18.4983C98.0814 18.4983 97.3627 18.7926 96.8929 19.3787C96.4152 19.966 96.1823 20.7359 96.1823 21.6945C96.1823 22.7068 96.4037 23.4935 96.8512 24.0509C97.2908 24.607 98.068 24.8869 99.1738 24.8869C99.5679 24.8869 99.9879 24.8495 100.442 24.7787C100.892 24.7066 101.307 24.5938 101.689 24.4351L102.145 27.0512C101.765 27.2085 101.294 27.3404 100.726 27.457C100.156 27.5701 99.5313 27.6289 98.8482 27.6289C97.7996 27.6289 96.8944 27.4726 96.1392 27.1662C95.3831 26.86 94.7586 26.4421 94.2716 25.9139C93.7813 25.3841 93.4278 24.7596 93.2015 24.0389C92.975 23.3171 92.8623 22.5339 92.8623 21.6945C92.8623 20.8788 92.9974 20.1102 93.2668 19.3896C93.5363 18.6665 93.9251 18.0395 94.4341 17.5025C94.9445 16.9657 95.5621 16.543 96.2923 16.2272Z" fill="white"></path>
  </mask>
  <g mask="url(#mask7)">
    <path fill-rule="evenodd" clip-rule="evenodd" d="M-157.291 58.9844L301.42 58.9844V-536.545L-157.291 -536.545V58.9844Z" fill="white"></path>
    <path fill-rule="evenodd" clip-rule="evenodd" d="M87.4016 32.6328L107.605 32.6328V10.7499L87.4016 10.7499V32.6328Z" fill="white"></path>
  </g>
  <path fill-rule="evenodd" clip-rule="evenodd" d="M104.248 27.3281V13.2419L107.502 12.6811V16.1042C107.719 16.0332 107.998 15.9648 108.344 15.9001C108.684 15.8364 109.017 15.8026 109.337 15.8026C110.267 15.8026 111.041 15.9288 111.661 16.1775C112.279 16.4273 112.777 16.7817 113.146 17.2391C113.52 17.6945 113.78 18.2396 113.935 18.8655C114.086 19.4958 114.162 20.1975 114.162 20.9686V27.3281L110.908 27.3281V21.3516C110.908 20.3234 110.774 19.5956 110.505 19.1645C110.236 18.7403 109.736 18.5255 109.01 18.5255C108.714 18.5255 108.444 18.5509 108.188 18.5988C107.934 18.6493 107.705 18.7045 107.502 18.761V27.3281L104.248 27.3281Z" fill="white"></path>
  <mask id="mask8" maskUnits="userSpaceOnUse" x="104" y="12" width="11" height="16">
    <path d="M104.248 13.238L107.502 12.6772V16.1005C107.719 16.0293 107.998 15.9609 108.344 15.8962C108.684 15.8325 109.017 15.7989 109.337 15.7989C110.267 15.7989 111.041 15.925 111.661 16.1735C112.279 16.4236 112.777 16.7778 113.146 17.2354C113.52 17.6905 113.78 18.2357 113.935 18.8618C114.086 19.4921 114.162 20.1936 114.162 20.9649V27.3242L110.908 27.3242V21.3477C110.908 20.3197 110.773 19.5917 110.505 19.1606C110.236 18.7366 109.736 18.5216 109.01 18.5216C108.714 18.5216 108.444 18.547 108.188 18.5951C107.934 18.6454 107.705 18.7006 107.502 18.7571V27.3242L104.248 27.3242V13.238Z" fill="white"></path>
  </mask>
  <g mask="url(#mask8)">
    <path fill-rule="evenodd" clip-rule="evenodd" d="M-157.291 58.9844L301.42 58.9844V-536.545L-157.291 -536.545V58.9844Z" fill="white"></path>
    <path fill-rule="evenodd" clip-rule="evenodd" d="M98.7869 32.3281L119.623 32.3281V7.67195L98.7869 7.67195V32.3281Z" fill="white"></path>
  </g>
  <path fill-rule="evenodd" clip-rule="evenodd" d="M6.12695 27.3281L6.12695 17.1142C6.12695 17.1142 7.76271 15.8327 11.3405 15.8327C14.5963 15.8327 16.3842 17.429 16.3842 20.942V27.3281L13.1322 27.3281V20.942C13.1322 18.7045 11.9909 18.5495 11.016 18.5495C10.041 18.5495 9.38807 19.0251 9.38807 19.0251V27.3281L6.12695 27.3281Z" fill="white"></path>
  <mask id="mask9" maskUnits="userSpaceOnUse" x="6" y="15" width="11" height="13">
    <path d="M6.12695 17.1142C6.12695 17.1142 7.76272 15.8327 11.3405 15.8327C14.5963 15.8327 16.384 17.4288 16.384 20.9422V27.3281L13.1322 27.3281V20.9422C13.1322 18.7043 11.9909 18.5495 11.016 18.5495C10.041 18.5495 9.38807 19.0253 9.38807 19.0253V27.3281L6.12695 27.3281V17.1142Z" fill="white"></path>
  </mask>
  <g mask="url(#mask9)">
    <path fill-rule="evenodd" clip-rule="evenodd" d="M-157.291 58.9844L301.42 58.9844V-536.545L-157.291 -536.545V58.9844Z" fill="white"></path>
    <path fill-rule="evenodd" clip-rule="evenodd" d="M0.666504 32.332L21.845 32.332V10.8277L0.666504 10.8277L0.666504 32.332Z" fill="white"></path>
  </g>
  <path fill-rule="evenodd" clip-rule="evenodd" d="M0 27.3281L0 13.2395L3.25583 12.6773L3.25583 27.3281L0 27.3281Z" fill="white"></path>
  <mask id="mask10" maskUnits="userSpaceOnUse" x="0" y="12" width="4" height="16">
    <path d="M0 13.2397L3.25583 12.6773V27.3281L0 27.3281L0 13.2397Z" fill="white"></path>
  </mask>
  <g mask="url(#mask10)">
    <path fill-rule="evenodd" clip-rule="evenodd" d="M-157.291 58.9844L301.42 58.9844V-536.545L-157.291 -536.545V58.9844Z" fill="white"></path>
    <path fill-rule="evenodd" clip-rule="evenodd" d="M-5.46069 32.332L8.71696 32.332V7.67235L-5.46069 7.67235V32.332Z" fill="white"></path>
  </g>
  <path fill-rule="evenodd" clip-rule="evenodd" d="M38.4455 22.5025L31.1223 22.5025C31.1223 22.5025 31.2858 24.8962 34.5378 24.8962C36.1659 24.8962 37.7939 24.4193 37.7939 24.4193L38.1197 26.9763C38.1197 26.9763 36.4931 27.6094 34.216 27.6094C30.9587 27.6094 28.03 26.0154 28.03 21.5465C28.03 18.032 30.3071 15.8005 33.5618 15.8005C38.4455 15.8005 38.7726 20.583 38.4455 22.5025ZM33.4021 18.032C31.2858 18.032 31.1223 20.2659 31.1223 20.2659L35.6763 20.2659C35.6763 20.2659 35.5168 18.032 33.4021 18.032Z" fill="white"></path>
  <mask id="mask11" maskUnits="userSpaceOnUse" x="28" y="15" width="11" height="13">
    <path d="M28.03 21.5463C28.03 18.0318 30.3071 15.8003 33.5616 15.8003C38.4453 15.8003 38.7724 20.583 38.4453 22.5023L31.1223 22.5023C31.1223 22.5023 31.2858 24.896 34.5376 24.896C36.1657 24.896 37.7936 24.4191 37.7936 24.4191L38.1195 26.9761C38.1195 26.9761 36.4928 27.6094 34.2158 27.6094C30.9587 27.6094 28.03 26.0154 28.03 21.5463ZM33.4019 18.0318C31.2858 18.0318 31.1223 20.2659 31.1223 20.2659L35.6763 20.2659C35.6763 20.2659 35.5166 18.0318 33.4019 18.0318Z" fill="white"></path>
  </mask>
  <g mask="url(#mask11)">
    <path fill-rule="evenodd" clip-rule="evenodd" d="M-157.291 58.9844L301.42 58.9844V-536.545L-157.291 -536.545V58.9844Z" fill="white"></path>
    <path fill-rule="evenodd" clip-rule="evenodd" d="M22.5693 32.6133L43.9974 32.6133V10.7954L22.5693 10.7954V32.6133Z" fill="white"></path>
  </g>
  <mask id="mask12" maskUnits="userSpaceOnUse" x="118" y="10" width="22" height="26">
    <path d="M118.474 12.6817C118.474 12.0007 127.835 10.531 134.112 10.531C136.835 10.531 138.977 10.8074 139.525 11.5442C142.352 14.9649 122.453 36.4255 120.795 35.7746C119.465 35.449 131.404 21.7893 129.414 16.2585C128.42 13.3339 118.474 13.6592 118.474 12.6817Z" fill="white"></path>
  </mask>
  <g mask="url(#mask12)">
    <path fill-rule="evenodd" clip-rule="evenodd" d="M113.014 40.793L145.261 40.793V5.52599L113.014 5.52599V40.793Z" fill="#EE312A"></path>
  </g>
  <mask id="mask13" maskUnits="userSpaceOnUse" x="135" y="0" width="9" height="9">
    <path d="M135.381 4.22549C135.381 1.88949 137.312 -0.000948906 139.691 -0.000948906C142.072 -0.000948906 144 1.88949 144 4.22549C144 6.56268 142.072 8.45313 139.691 8.45313C137.312 8.45313 135.381 6.56268 135.381 4.22549Z" fill="white"></path>
  </mask>
  <g mask="url(#mask13)">
    <path fill-rule="evenodd" clip-rule="evenodd" d="M129.92 13.457L149.46 13.457V-5.00629L129.92 -5.00629V13.457Z" fill="#EE312A"></path>
  </g>
</svg>
