<svg width="64" height="64" viewBox="0 0 64 64" fill="none" xmlns="http://www.w3.org/2000/svg">
<g clip-path="url(#clip0_15375_53328)">
<rect width="64" height="64" rx="32" fill="#E9EFFD"/>
<g clip-path="url(#clip1_15375_53328)">
<path d="M7.44792 39.6163V35.533C7.44792 34.8375 7.5044 34.1569 7.61737 33.4913M31.9479 39.6163V35.533C31.9481 33.0447 31.1905 30.6153 29.7759 28.5682C28.3613 26.5211 26.3569 24.9534 24.0293 24.0735C21.7017 23.1937 19.1614 23.0436 16.7464 23.6431C14.3314 24.2426 12.1563 25.5634 10.5104 27.4296M17.6562 64.1163H11.5312C5.75742 64.1163 2.86846 64.1163 1.07587 62.3217C-0.71875 60.5291 -0.71875 57.6402 -0.71875 51.8663C-0.71875 46.0925 -0.71875 43.2035 1.07587 41.4109C2.86846 39.6163 5.75742 39.6163 11.5312 39.6163H27.8646C33.6384 39.6163 36.5274 39.6163 38.32 41.4109C40.1146 43.2035 40.1146 46.0925 40.1146 51.8663C40.1146 57.6402 40.1146 60.5291 38.32 62.3217C36.5274 64.1163 33.6384 64.1163 27.8646 64.1163H25.8229" fill="#F6E96B"/>
<path d="M17.5716 47.8669C17.5716 48.4083 17.3565 48.9277 16.9736 49.3105C16.5907 49.6934 16.0714 49.9085 15.5299 49.9085C14.9885 49.9085 14.4692 49.6934 14.0863 49.3105C13.7034 48.9277 13.4883 48.4083 13.4883 47.8669C13.4883 47.3254 13.7034 46.8061 14.0863 46.4232C14.4692 46.0403 14.9885 45.8252 15.5299 45.8252C16.0714 45.8252 16.5907 46.0403 16.9736 46.4232C17.3565 46.8061 17.5716 47.3254 17.5716 47.8669ZM25.7383 47.8669C25.7383 48.4083 25.5232 48.9277 25.1403 49.3105C24.7574 49.6934 24.2381 49.9085 23.6966 49.9085C23.1551 49.9085 22.6358 49.6934 22.2529 49.3105C21.8701 48.9277 21.6549 48.4083 21.6549 47.8669C21.6549 47.3254 21.8701 46.8061 22.2529 46.4232C22.6358 46.0403 23.1551 45.8252 23.6966 45.8252C24.2381 45.8252 24.7574 46.0403 25.1403 46.4232C25.5232 46.8061 25.7383 47.3254 25.7383 47.8669ZM33.9049 47.8669C33.9049 48.4083 33.6898 48.9277 33.307 49.3105C32.9241 49.6934 32.4048 49.9085 31.8633 49.9085C31.3218 49.9085 30.8025 49.6934 30.4196 49.3105C30.0367 48.9277 29.8216 48.4083 29.8216 47.8669C29.8216 47.3254 30.0367 46.8061 30.4196 46.4232C30.8025 46.0403 31.3218 45.8252 31.8633 45.8252C32.4048 45.8252 32.9241 46.0403 33.307 46.4232C33.6898 46.8061 33.9049 47.3254 33.9049 47.8669Z" fill="#2563EB"/>
<path d="M11.4479 35.6163V31.533C11.4479 30.8375 11.5044 30.1569 11.6174 29.4913M35.9479 35.6163V31.533C35.9481 29.0447 35.1905 26.6153 33.7759 24.5682C32.3613 22.5211 30.3569 20.9534 28.0293 20.0735C25.7017 19.1937 23.1614 19.0436 20.7464 19.6431C18.3314 20.2426 16.1563 21.5634 14.5104 23.4296M21.6562 60.1163H15.5312C9.75742 60.1163 6.86846 60.1163 5.07587 58.3217C3.28125 56.5291 3.28125 53.6402 3.28125 47.8663C3.28125 42.0925 3.28125 39.2035 5.07587 37.4109C6.86846 35.6163 9.75742 35.6163 15.5312 35.6163H31.8646C37.6384 35.6163 40.5274 35.6163 42.32 37.4109C44.1146 39.2035 44.1146 42.0925 44.1146 47.8663C44.1146 53.6402 44.1146 56.5291 42.32 58.3217C40.5274 60.1163 37.6384 60.1163 31.8646 60.1163H29.8229" stroke="#2563EB" stroke-width="2" stroke-linecap="round"/>
</g>
</g>
<defs>
<clipPath id="clip0_15375_53328">
<rect width="64" height="64" rx="32" fill="white"/>
</clipPath>
<clipPath id="clip1_15375_53328">
<rect width="49" height="49" fill="white" transform="translate(-0.796875 15.2002)"/>
</clipPath>
</defs>
</svg>
