<svg width="162" height="160" viewBox="0 0 162 160" fill="none" xmlns="http://www.w3.org/2000/svg">
<g clip-path="url(#clip0_150_2497)">
<rect width="160" height="160" rx="80" fill="#2563EB"/>
<path d="M18 186.322C30.6084 184.511 43.4407 185.003 55.8734 187.774C59.2262 188.444 62.6885 189.339 65.8166 187.999C67.493 187.329 68.8333 185.986 70.5097 185.205C75.873 182.635 82.1293 185.986 88.0494 186.434C90.7632 186.591 93.4765 186.118 95.977 185.052C98.4775 183.986 100.697 182.356 102.463 180.289C103.594 178.623 104.947 177.12 106.484 175.82C108.516 174.642 110.84 174.061 113.188 174.144C122.461 173.362 132.851 171.686 138.437 164.312C140.716 161.038 142.242 157.3 142.906 153.367C144.921 144.819 144.139 135.85 140.672 127.781C136.986 119.96 129.5 113.592 120.784 112.586C111.289 115.274 106.261 127.67 96.5409 129.121C91.0662 129.905 85.0346 126.999 80.0054 129.346C77.3171 130.575 75.4256 133.033 72.7449 134.147C64.5876 137.722 54.9805 127.779 46.9365 131.355C43.8084 132.806 41.6846 135.934 38.4451 137.163C35.8758 138.17 32.9704 137.722 30.2897 137.834C27.609 137.945 24.479 139.287 23.6974 141.968C20.3466 154.48 21.2395 166.325 19.0043 179.06C18.5588 181.854 18.5588 183.306 18 186.322V186.322Z" fill="#FB923C"/>
<path d="M48.6108 155.15L40.1213 150.349C39.2265 114.486 42.0205 78.3983 45.7074 41.4178C63.8059 34.9369 81.793 28.6807 99.6669 26C102.596 27.4189 105.432 29.0223 108.158 30.8007C110.057 61.3003 102.125 102.863 97.0976 135.15" fill="#AFC5DC"/>
<path d="M105.595 139.957C88.1591 149.677 68.5756 154.899 48.6149 155.15C47.722 119.287 50.514 83.2016 54.2009 46.2211C72.3014 39.7401 90.2885 33.4839 108.16 30.8032C111.4 66.1073 111.511 102.306 105.591 139.957" fill="#F6E96B"/>
<path d="M120.006 151.019C112.299 151.242 103.584 148.673 99.3386 144.093C95.6517 140.181 90.8472 134.707 90.6245 128.003C80.9359 132.334 70.6557 135.196 60.1229 136.494C60.3273 135.233 60.829 134.038 61.5867 133.008C62.3443 131.979 63.3361 131.144 64.48 130.574C60.6224 130.667 56.775 130.138 53.0852 129.009C52.6133 128.926 52.1817 128.691 51.8562 128.339C51.186 127.333 52.415 126.217 53.5307 125.77L74.6536 115.043C79.4543 112.585 84.5968 109.123 89.9581 109.457C84.038 106.999 77.8931 104.43 71.4122 104.541C69.4669 104.617 67.5275 104.803 65.6034 105.1C59.967 105.569 54.295 104.846 48.9566 102.978C48.3978 102.753 47.7276 102.531 47.5049 101.972C46.7214 100.628 48.5092 99.1797 50.0742 98.7323C58.3262 96.0315 66.7654 93.9405 75.3238 92.4761C77.2692 92.0635 79.2557 91.876 81.2439 91.9173C86.7186 92.14 92.4161 95.2681 96.8865 98.3963C89.8468 90.3523 82.9204 82.3083 75.8826 74.2643C73.8701 71.9177 71.7482 69.0143 72.6412 66.1089C90.0714 71.3608 104.71 84.8795 115.991 98.6209C121.856 105.797 126.983 113.545 131.298 121.747C134.754 128.562 140.012 137.165 134.871 144.214C131.515 149.009 125.704 150.795 120.006 151.019V151.019Z" fill="#B2664E"/>
<path d="M60.4575 54.3771C59.8324 55.3255 59.4539 56.4149 59.3563 57.5466C59.2587 58.6784 59.4452 59.8165 59.8987 60.858C60.3928 61.7284 61.1865 62.3895 62.1319 62.7181C63.0773 63.0467 64.11 63.0203 65.0374 62.6438C65.6551 62.392 66.2527 62.0934 66.8251 61.7509C68.4162 60.7268 69.6621 59.2473 70.4007 57.5052C70.8029 56.7317 71.0221 55.8761 71.0414 55.0045C71.0607 54.1329 70.8796 53.2685 70.512 52.4779C68.5015 49.0137 63.0268 50.0276 60.4575 54.3771Z" fill="white"/>
<path d="M63.0266 55.6054C62.7493 56.0323 62.5835 56.5219 62.5442 57.0295C62.505 57.537 62.5936 58.0463 62.8019 58.5108C63.0321 58.9031 63.3968 59.1986 63.8284 59.3424C64.26 59.4861 64.729 59.4683 65.1485 59.2923C65.4323 59.187 65.697 59.0358 65.932 58.8449C66.657 58.3812 67.2372 57.7232 67.6064 56.9457C67.7733 56.5971 67.8599 56.2156 67.8599 55.8291C67.8599 55.4426 67.7733 55.0611 67.6064 54.7125C66.7135 53.1475 64.1442 53.7063 63.0266 55.6054V55.6054Z" fill="black"/>
<path d="M59.5622 68.3422C58.9376 69.2905 58.5593 70.3796 58.4618 71.5109C58.3642 72.6422 58.5504 73.78 59.0034 74.8212C59.4975 75.6921 60.2914 76.3537 61.2372 76.6827C62.183 77.0116 63.2161 76.9854 64.144 76.609C64.7613 76.3563 65.3589 76.0579 65.9318 75.7161C67.5219 74.6914 68.7671 73.212 69.5054 71.4703C69.9083 70.6971 70.1281 69.8416 70.1478 68.9699C70.1674 68.0982 69.9864 67.2337 69.6187 66.4431C67.4968 62.9789 62.0202 63.9851 59.5622 68.3422ZM61.0159 81.9723C60.6958 82.4421 60.4974 82.9841 60.4388 83.5496C60.3801 84.1151 60.463 84.6863 60.6798 85.2118C60.9232 85.6507 61.3198 85.9844 61.7939 86.1492C62.2679 86.3139 62.786 86.2981 63.2491 86.1047C63.568 86.0017 63.8696 85.8516 64.144 85.6592C64.9395 85.1472 65.5619 84.407 65.9298 83.5354C66.1237 83.1547 66.2248 82.7336 66.2248 82.3064C66.2248 81.8792 66.1237 81.4581 65.9298 81.0774C64.9255 79.2897 62.2449 79.8485 61.0159 81.9723Z" fill="white"/>
<path d="M62.0224 69.5731C61.7449 69.9996 61.5791 70.489 61.5401 70.9964C61.5012 71.5037 61.5904 72.0127 61.7996 72.4765C62.0295 72.8692 62.3941 73.1651 62.8257 73.3092C63.2573 73.4533 63.7265 73.4359 64.1462 73.26C64.4285 73.1528 64.6923 73.0018 64.9277 72.8126C65.6524 72.3479 66.233 71.6902 66.6041 70.9134C66.7701 70.5642 66.8562 70.1825 66.8562 69.7958C66.8562 69.4092 66.7701 69.0275 66.6041 68.6783C65.7093 67.119 63.2513 67.5606 62.0224 69.5731V69.5731Z" fill="black"/>
</g>
<rect x="122" width="40" height="40" rx="20" fill="#FB923C"/>
<path fill-rule="evenodd" clip-rule="evenodd" d="M144.877 9.31291C139.88 7.97395 136.496 11.917 135.695 14.9082C135.096 17.1437 135.596 16.5727 133.628 18.9682C131.076 22.4496 136.727 25.6662 140.243 26.6083C143.758 27.5502 150.26 27.59 149.791 23.2991C149.285 20.2404 149.432 20.9852 150.031 18.7496C150.833 15.7585 149.873 10.6516 144.877 9.31291Z" fill="white"/>
<path d="M142.045 30.2925C140.15 31.5309 137.87 30.9405 136.839 28.8975" stroke="white" stroke-width="1.5" stroke-linecap="round" stroke-linejoin="round"/>
<defs>
<clipPath id="clip0_150_2497">
<rect width="160" height="160" rx="80" fill="white"/>
</clipPath>
</defs>
</svg>
